<?xml version="1.0" standalone="no"?>
<!DOCTYPE svg PUBLIC "-//W3C//DTD SVG 20010904//EN"
 "http://www.w3.org/TR/2001/REC-SVG-20010904/DTD/svg10.dtd">
<svg version="1.0" xmlns="http://www.w3.org/2000/svg"
 width="500.000000pt" height="500.000000pt" viewBox="0 0 500.000000 500.000000"
 preserveAspectRatio="xMidYMid meet">

<g transform="translate(0.000000,500.000000) scale(0.100000,-0.100000)"
fill="#000000" stroke="none">
<path d="M2276 4829 c-252 -22 -574 -115 -814 -234 -468 -233 -827 -593 -1057
-1060 -373 -757 -314 -1634 158 -2340 227 -339 533 -604 912 -790 328 -161
650 -235 1025 -235 274 0 486 34 743 120 678 227 1219 759 1455 1433 104 295
138 518 129 849 -9 363 -75 631 -237 963 -423 868 -1340 1381 -2314 1294z
m1697 -1582 c5 -14 -536 -1421 -555 -1444 -14 -17 -37 -16 -44 1 -4 10 451
1207 541 1424 14 33 48 44 58 19z m-3006 -278 c2 -20 -34 -53 -253 -223 -140
-110 -259 -205 -265 -212 -7 -9 59 -66 253 -219 198 -156 264 -213 266 -231 3
-18 -1 -24 -15 -24 -28 0 -595 449 -591 468 4 19 578 474 593 469 5 -2 11 -14
12 -28z m3381 -200 c160 -126 292 -236 292 -244 0 -20 -565 -460 -592 -460
-59 0 -23 36 242 245 262 205 271 213 253 230 -10 10 -130 107 -268 215 -137
108 -252 201 -253 206 -4 10 16 39 27 39 3 0 138 -104 299 -231z m-2874 190
c3 -17 6 -204 6 -415 l0 -384 225 0 225 0 0 -60 0 -60 -290 0 -290 0 0 468 c0
258 3 472 7 475 3 4 30 7 58 7 51 0 53 -1 59 -31z m930 -245 l184 -275 18 24
c11 13 93 137 184 275 l165 252 58 0 57 0 0 -475 0 -475 -60 0 -60 0 0 345 c0
190 -4 345 -8 345 -5 0 -75 -99 -156 -220 l-148 -221 -51 3 -52 3 -150 224
-150 223 -3 -351 -2 -351 -60 0 -60 0 0 475 0 475 55 0 55 0 184 -276z"/>
</g>
</svg>
