{
  "accessors": [
    {
      "bufferView": 2,
      "componentType": 5126,
      "count": 14431,
      "max": [
        334.8330078125,
        154.19200134277344,
        -69.22370147705078
      ],
      "min": [
        -370.4700012207031,
        -257.5710144042969,
        -437.79998779296875
      ],
      "type": "VEC3"
    },
    {
      "bufferView": 2,
      "byteOffset": 173172,
      "componentType": 5126,
      "count": 14431,
      "max": [
        1.0,
        0.9999996423721313,
        0.9999859929084778
      ],
      "min": [
        -0.999999463558197,
        -0.9999966621398926,
        -1.0
      ],
      "type": "VEC3"
    },
    {
      "bufferView": 1,
      "componentType": 5126,
      "count": 14431,
      "max": [
        0.998000979423523,
        1.9985500574111938
      ],
      "min": [
        0.5012500286102295,
        1.5013999938964844
      ],
      "type": "VEC2"
    },
    {
      "bufferView": 0,
      "componentType": 5125,
      "count": 75846,
      "type": "SCALAR"
    },
    {
      "bufferView": 2,
      "byteOffset": 346344,
      "componentType": 5126,
      "count": 33994,
      "max": [
        360.1709899902344,
        375.09698486328125,
        633.0770263671875
      ],
      "min": [
        -324.2139892578125,
        -271.25201416015625,
        -124.0009994506836
      ],
      "type": "VEC3"
    },
    {
      "bufferView": 2,
      "byteOffset": 754272,
      "componentType": 5126,
      "count": 33994,
      "max": [
        0.9998881220817566,
        1.0,
        0.9998963475227356
      ],
      "min": [
        -0.9998821020126343,
        -0.9999935030937195,
        -1.0
      ],
      "type": "VEC3"
    },
    {
      "bufferView": 1,
      "byteOffset": 115448,
      "componentType": 5126,
      "count": 33994,
      "max": [
        0.996300995349884,
        1.997849941253662
      ],
      "min": [
        0.5021499991416931,
        1.5019500255584717
      ],
      "type": "VEC2"
    },
    {
      "bufferView": 0,
      "byteOffset": 303384,
      "componentType": 5125,
      "count": 180000,
      "type": "SCALAR"
    }
  ],
  "asset": {
    "extras": {
      "author": "bride19 (https://sketchfab.com/bride19)",
      "license": "CC-BY-4.0 (http://creativecommons.org/licenses/by/4.0/)",
      "source": "https://sketchfab.com/3d-models/girl-02-1ab37e3262834d81bf37b1aeb503bf95",
      "title": "Girl 02"
    },
    "generator": "Sketchfab-15.17.0",
    "version": "2.0"
  },
  "bufferViews": [
    {
      "buffer": 0,
      "byteLength": 1023384,
      "name": "floatBufferViews",
      "target": 34963
    },
    {
      "buffer": 0,
      "byteLength": 387400,
      "byteOffset": 1023384,
      "byteStride": 8,
      "name": "floatBufferViews",
      "target": 34962
    },
    {
      "buffer": 0,
      "byteLength": 1162200,
      "byteOffset": 1410784,
      "byteStride": 12,
      "name": "floatBufferViews",
      "target": 34962
    }
  ],
  "buffers": [
    {
      "byteLength": 2572984,
      "uri": "scene.bin"
    }
  ],
  "images": [
    {
      "uri": "textures/0__Material__34_baseColor.jpeg"
    },
    {
      "uri": "textures/1__Material__35_baseColor.jpeg"
    }
  ],
  "materials": [
    {
      "doubleSided": true,
      "name": "0__Material__34",
      "pbrMetallicRoughness": {
        "baseColorTexture": {
          "index": 0
        },
        "metallicFactor": 0.0,
        "roughnessFactor": 0.8434915419926713
      }
    },
    {
      "doubleSided": true,
      "name": "1__Material__35",
      "pbrMetallicRoughness": {
        "baseColorTexture": {
          "index": 1
        },
        "metallicFactor": 0.0,
        "roughnessFactor": 0.8434915419926713
      }
    }
  ],
  "meshes": [
    {
      "name": "Object_0",
      "primitives": [
        {
          "attributes": {
            "NORMAL": 1,
            "POSITION": 0,
            "TEXCOORD_0": 2
          },
          "indices": 3,
          "material": 0,
          "mode": 4
        }
      ]
    },
    {
      "name": "Object_1",
      "primitives": [
        {
          "attributes": {
            "NORMAL": 5,
            "POSITION": 4,
            "TEXCOORD_0": 6
          },
          "indices": 7,
          "material": 1,
          "mode": 4
        }
      ]
    }
  ],
  "nodes": [
    {
      "children": [
        1
      ],
      "matrix": [
        1.0,
        0.0,
        0.0,
        0.0,
        0.0,
        2.220446049250313e-16,
        -1.0,
        0.0,
        0.0,
        1.0,
        2.220446049250313e-16,
        0.0,
        0.0,
        0.0,
        0.0,
        1.0
      ],
      "name": "Sketchfab_model"
    },
    {
      "children": [
        2,
        3
      ],
      "name": "model.obj.cleaner.materialmerger.gles"
    },
    {
      "mesh": 0,
      "name": "Object_2"
    },
    {
      "mesh": 1,
      "name": "Object_3"
    }
  ],
  "samplers": [
    {
      "magFilter": 9729,
      "minFilter": 9987,
      "wrapS": 10497,
      "wrapT": 10497
    }
  ],
  "scene": 0,
  "scenes": [
    {
      "name": "Sketchfab_Scene",
      "nodes": [
        0
      ]
    }
  ],
  "textures": [
    {
      "sampler": 0,
      "source": 0
    },
    {
      "sampler": 0,
      "source": 1
    }
  ]
}
